PathFileType	4	(X/Y/Z)	54_2_rein_97_p1_0-2132_filt_butterworth.trc
DataRate	CameraRate	NumFrames	NumMarkers	Units	OrigDataRate	OrigDataStartFrame	OrigNumFrames
60.0	60.0	7	27	m	60.0	1332	2132
Frame#	Time	RHip			RKnee			RAnkle			RBigToe			RSmallToe			RHeel			LHip			LKnee			LAnkle			LBigToe			LSmallToe			LHeel			Neck			Head			Nose			RShoulder			RElbow			RWrist			RThumb			RIndex			RPinky			LShoulder			LElbow			LWrist			LThumb			LIndex			LPinky			
		X1	Y1	Z1	X2	Y2	Z2	X3	Y3	Z3	X4	Y4	Z4	X5	Y5	Z5	X6	Y6	Z6	X7	Y7	Z7	X8	Y8	Z8	X9	Y9	Z9	X10	Y10	Z10	X11	Y11	Z11	X12	Y12	Z12	X13	Y13	Z13	X14	Y14	Z14	X15	Y15	Z15	X16	Y16	Z16	X17	Y17	Z17	X18	Y18	Z18	X19	Y19	Z19	X20	Y20	Z20	X21	Y21	Z21	X22	Y22	Z22	X23	Y23	Z23	X24	Y24	Z24	X25	Y25	Z25	X26	Y26	Z26	X27	Y27	Z27	
1332	22.2	0.2857647884420823	1.0548838350322458	0.5490699279302095	0.24869842567527184	0.6024737631734624	0.4704046348808237	0.26835682373549397	0.08439248472547711	0.5533780436081931	0.2079896569246571	0.09286172645892578	0.33019031481445554	0.2734424164130851	0.059982154298989225	0.3865540468611203	0.25226487462390984	-0.007164475377280688	0.6527602123191729	0.06645400118463306	1.0570740433870742	0.568974903676529	0.07812973750832204	0.568543682110739	0.5698108521867962	0.06399397882316712	0.11955697071353284	0.5603119805189535	0.053752976295988075	0.08572606642629418	0.3679964073978022	0.009549722699335291	0.05232163694477777	0.43850084490580044	0.08372722402018913	0.0693855238886488	0.5896064610439073	0.20398979484385327	1.584699152393879	0.5410761948835193	0.1657461467183894	1.8478563142848476	0.42549664295780637	0.152849816132319	1.6805984171117951	0.4194402761330931	0.34114418504621813	1.5192960060447873	0.5234829857352841	0.3441030189321197	1.300714396036871	0.3868956691059237	0.3272718725182059	1.4725421132266967	0.18943874161922786	0.35835935156870247	1.5941142834810151	0.21877397849579572	0.35024493542465107	1.624081869158132	0.1295899437196537	0.34637332696151724	1.582485411988463	0.08983836535673784	0.048739107455198036	1.5374752826598497	0.5893715554151965	-0.010534005286922013	1.256426167642995	0.6199923829926912	-0.05892813618066337	0.9924897241868346	0.5572526861255824	-0.05752831031994045	0.9006546662855508	0.4819290141644667	-0.07494895377993563	0.8793100895959111	0.462529013942067	-0.07575278982503227	0.8581569274477197	0.5241611864808663	
1333	22.216666666666665	0.2862798804749948	1.0551024617359122	0.5493643816784355	0.24985994926028107	0.6026763267966717	0.4706015374846355	0.26835049302891656	0.08438495641414515	0.553416373895284	0.20788931585126896	0.09243067656630788	0.3300966701499379	0.2727381401207882	0.061413860168918546	0.38446890258842686	0.25213183951378826	-0.006886234111442895	0.6524950651136996	0.06661344556353492	1.056810351113933	0.5684399635402538	0.07844930244744011	0.5688257091257953	0.5699748178025461	0.06390980931143665	0.11962672982813677	0.5601694701698341	0.05370135496904209	0.08618823423530168	0.3679062438160777	0.00974528559882667	0.05310860318925178	0.43843808617973534	0.08360161498959202	0.06983110529611579	0.5892064172615424	0.2039916244669634	1.5846303495111078	0.5410884323771412	0.16600405254900724	1.848943473337617	0.42543065785359446	0.15280947889596208	1.6810168602030466	0.4194730397438211	0.34176330215230877	1.5196301344392333	0.5238803620306836	0.34544625847640753	1.299548344381454	0.3881673763842081	0.32819071150448476	1.4714841270475896	0.1905171251806675	0.3493615511811554	1.5910404848145034	0.2262005893810941	0.3453857770819424	1.622142509484198	0.1374601530526636	0.3447067374669126	1.58324628232555	0.08875172384200308	0.04872998421355931	1.5374529987855443	0.5895146783265993	-0.010461370328492897	1.2559122879416555	0.6199132862295766	-0.05869897841443572	0.9919818086456047	0.5581797606080524	-0.05677834117308453	0.901463990982619	0.4822470124066358	-0.07406869075742106	0.8786689583102196	0.46323382748663205	-0.0745436783696084	0.8562426593042799	0.5285070712152423	
1334	22.23333333333333	0.2866192952538909	1.0552424173903714	0.5491612378534539	0.2510994933206162	0.602405626215405	0.4717678908673246	0.2683071903926309	0.08438171606220492	0.5534418071209875	0.20782452091707132	0.09297589671992697	0.3299933267910946	0.27216409105961387	0.06253812239935083	0.3828207186220272	0.25207233682827485	-0.006674118693861452	0.6523743126177135	0.06670911856245866	1.056552700146461	0.568013940538871	0.07876523937861216	0.5691565384133055	0.5701306250830989	0.06390899977862954	0.11967470892798297	0.5600763972026939	0.05359623447213348	0.08702906179324149	0.36774002931583893	0.010001668832135355	0.05412820437354442	0.43835441392436275	0.08343192183222768	0.07024499187901069	0.588960912357845	0.2039625194237792	1.5849421791026728	0.5410964725825895	0.16675335593068422	1.8498316560307864	0.42676674774540363	0.1528110609427435	1.6818358161495315	0.41961418956070645	0.34233222517658274	1.5204272895877244	0.524348545460909	0.3478539630127222	1.2981215973867275	0.3892181719118329	0.3294337581455461	1.4700652479584948	0.1919351790643397	0.33986411648805565	1.5885791888804495	0.227156854743817	0.33950075194421514	1.6188366686368494	0.1448812370550558	0.3419036832874768	1.582873794759122	0.0877598628946914	0.04871626643479055	1.5374380036417201	0.5895563230303623	-0.010411361217310159	1.2555380308129354	0.6197671620671888	-0.0580942110006242	0.9902157603835768	0.5599911278301148	-0.05556342050212406	0.9009963865554772	0.4842144568126818	-0.07313237409312191	0.8775516804299819	0.46442063484772145	-0.07320534892649697	0.853974130999634	0.533003271926937	
1335	22.25	0.28677358315960016	1.055324762569587	0.5485516909944014	0.2524793899588593	0.6016465588401928	0.47388576250309655	0.26823377530329784	0.08436540916155261	0.553449023652265	0.20780601733558096	0.09443499427912268	0.32990537837897366	0.2717452710635171	0.06316812949765206	0.38188722589478086	0.2520854778149159	-0.006516291687072975	0.6523746243953152	0.06673937917368401	1.0563967220500765	0.5676773163943966	0.07906662805730227	0.5695580864875006	0.5702676034101972	0.06396113972605554	0.11970537315778239	0.560068436311674	0.05343223748647659	0.08819662560702604	0.3674769000359686	0.010292360481474937	0.055268515804001925	0.43825771898504484	0.08327708090711568	0.07051862963208412	0.5889502626925507	0.20389732062150567	1.5858132587802163	0.5410882869783742	0.16802909658596432	1.8505831006893978	0.4292349944479801	0.1528612307671941	1.683219523027616	0.41991947520135925	0.34274212325395703	1.5216519750304027	0.5248934275406407	0.3513239202403651	1.2964961726425581	0.3901634542743589	0.33085874720480973	1.4679885119415674	0.19396419374682144	0.33079279364514114	1.5861586588563727	0.2212847652705378	0.3331266473504833	1.6136257290523417	0.1514033403534088	0.337562959807903	1.5799482373585356	0.08921356295802527	0.04873795166587304	1.5374186243605859	0.5896137382229824	-0.010390816441490657	1.255168945868002	0.6195371189219505	-0.05707099028138948	0.9876714286200536	0.562465594340735	-0.05395274891860034	0.8990290599250222	0.48828488935153247	-0.0722595357486033	0.8761084992991925	0.46594921389212013	-0.07187824963412939	0.8516852099797281	0.5373219023483161	
1336	22.266666666666666	0.28678318285638	1.0554020225634304	0.54769352234234	0.25399916783014287	0.600464722247651	0.47686893131682306	0.26817996512773484	0.0843055241260585	0.5534520344175273	0.20783366207413226	0.09648697892353039	0.3298341875031324	0.271475223076161	0.06327752153048323	0.3817056937154683	0.25216622813642664	-0.006363513875521936	0.6524210584622413	0.06670013229700032	1.0564021206512868	0.5673950455137269	0.07934971529340824	0.5699998674829512	0.570392738408783	0.06398266962116515	0.11971120573929567	0.5601369488249661	0.05322574567210259	0.08957119093034219	0.36706499845936646	0.01056114458403014	0.05630738798876079	0.4381667473801985	0.0831781838833557	0.07063203934666587	0.5891786315075617	0.20380280726600664	1.587217341382201	0.5410758426027088	0.1696853549110033	1.851331299955972	0.432199857712279	0.15293668813257638	1.6852183202943616	0.4203631258919045	0.342936993989744	1.5233912111088679	0.5254893831923217	0.3555413864244381	1.294531534095368	0.3912504415758298	0.33217151812359996	1.4649802781289656	0.19670605001970723	0.3226344113239811	1.5828291232156575	0.21034306153082666	0.3266665318151284	1.6059661748232943	0.1562813225742497	0.3315551662597665	1.5732591545372008	0.09453285650071694	0.04880295789133688	1.53735477317185	0.5897430079655529	-0.010397594638140831	1.2547037239831311	0.6191844782813585	-0.05573993340682388	0.9848762050745697	0.5652305913780065	-0.052061862671385226	0.895612680314233	0.49427648951224523	-0.07153295098315862	0.8745114120619711	0.46763206794225204	-0.07077762444428816	0.8496971920897116	0.5410107923961195	
1337	22.28333333333333	0.2866878595680771	1.0554600032620745	0.546783009537842	0.2556263500770282	0.5989836109118751	0.4806221959676272	0.2682006071807965	0.08419020536924962	0.5534805639704113	0.20789646520814392	0.09850061170787415	0.3297760265132313	0.2713992219918403	0.06310204443722678	0.3819433334743017	0.25232645087270095	-0.00620638256397681	0.6524932846185153	0.06659420476230375	1.0565171148793917	0.5671349982356849	0.07961719505666019	0.5704059349269633	0.5705215681471675	0.06391895417704177	0.11967763753481692	0.5602461700074569	0.05305464901267082	0.09086311006012188	0.3665202622581082	0.01072956810821959	0.056938880471218235	0.43810861433248915	0.08315719803334287	0.07064953305763694	0.5896163854076997	0.20369018687675444	1.5890218492768675	0.5410893830985661	0.17138150611641956	1.8521899616483333	0.4350407765486992	0.1529989567217952	1.6877538505335692	0.4208751777127018	0.3429255146161134	1.5256899631694134	0.5259151853482262	0.3601104667637196	1.2918535227299	0.3924560227642029	0.33297714525447	1.4608575277281866	0.19952110128363934	0.3155610476957671	1.5777823281449181	0.19728401305105864	0.32032922560828425	1.595723398692462	0.1586519380762416	0.3242066271201306	1.5623014063575162	0.1033474463356859	0.048886296579404465	1.5372611079243939	0.5899346504396926	-0.010418749163056564	1.25406204506281	0.6187176985355172	-0.05430222279110422	0.9822153942175952	0.5678965272917567	-0.050016929965556386	0.8909928771499185	0.5015773926785831	-0.07089546982936802	0.8728127446482673	0.4695195096393265	-0.07002733917015089	0.848028467116653	0.5437727022438156	
1338	22.3	0.286488947322643	1.0553459319626532	0.5459525847878269	0.25734714747899906	0.5972988599439868	0.4851070567517617	0.26831892418929093	0.08404388103652265	0.5535689997461327	0.20796399679014876	0.09981392654728093	0.3297407497642972	0.2716513737518923	0.06300391449747611	0.3820960990123512	0.2525700436581899	-0.006069635587287459	0.6526125614181323	0.06643834027120381	1.0564853137210986	0.5669062749410212	0.07987036342887908	0.5707014276993352	0.5706647520994773	0.06379156218062897	0.1196069481219989	0.5603578630339129	0.05304253348075044	0.0915835797596918	0.366096008881402	0.010739080912597995	0.05693031620609796	0.43810604110966833	0.08321924825631771	0.07064262049221257	0.5902286733463179	0.203574579396178	1.5911182482042976	0.5411687051521084	0.17273069523518875	1.8531995746175876	0.4373577122665734	0.15301207854893029	1.690684563485881	0.4213828548349773	0.34283809821108807	1.5284092248996373	0.5258202104196739	0.3646571757369011	1.288279485507873	0.39332722004376247	0.33293158379967563	1.4554544227122883	0.2016511140203368	0.30959879434833126	1.5706676100787158	0.18474035621996657	0.31409941285362636	1.5833719223587361	0.1581753857090834	0.3163989503654342	1.5473422593919317	0.1140149672860613	0.04895400645061408	1.537155888391601	0.5901645570432447	-0.010423912692760107	1.253075288019133	0.6183285220765071	-0.05297071181447178	0.9800062229172057	0.5701080383842625	-0.04790763788358529	0.8856574824107333	0.509519002022609	-0.07017174393211471	0.8709903575813981	0.47198162343404504	-0.06955205367860173	0.8465771803276239	0.5457006808238641	
